<svg width="18" height="16" viewBox="0 0 18 16" fill="none" xmlns="http://www.w3.org/2000/svg">
<path d="M15.875 3.078H13.2187L12.5859 1.30457C12.5422 1.18321 12.4621 1.07832 12.3565 1.00421C12.251 0.930099 12.1251 0.890389 11.9961 0.890503H6.00391C5.74023 0.890503 5.50391 1.05652 5.41602 1.30457L4.78125 3.078H2.125C1.26172 3.078 0.5625 3.77722 0.5625 4.6405V13.5468C0.5625 14.41 1.26172 15.1093 2.125 15.1093H15.875C16.7383 15.1093 17.4375 14.41 17.4375 13.5468V4.6405C17.4375 3.77722 16.7383 3.078 15.875 3.078ZM9 11.9843C7.27344 11.9843 5.875 10.5858 5.875 8.85925C5.875 7.13269 7.27344 5.73425 9 5.73425C10.7266 5.73425 12.125 7.13269 12.125 8.85925C12.125 10.5858 10.7266 11.9843 9 11.9843ZM7.125 8.85925C7.125 9.35653 7.32254 9.83345 7.67417 10.1851C8.0258 10.5367 8.50272 10.7343 9 10.7343C9.49728 10.7343 9.97419 10.5367 10.3258 10.1851C10.6775 9.83345 10.875 9.35653 10.875 8.85925C10.875 8.36197 10.6775 7.88506 10.3258 7.53343C9.97419 7.1818 9.49728 6.98425 9 6.98425C8.50272 6.98425 8.0258 7.1818 7.67417 7.53343C7.32254 7.88506 7.125 8.36197 7.125 8.85925Z" fill="white"/>
</svg>
