<svg width="24" height="24" viewBox="0 0 24 24" fill="none" xmlns="http://www.w3.org/2000/svg">
<path fill-rule="evenodd" clip-rule="evenodd" d="M12 12.625C14.1481 12.625 15.75 11.0113 15.75 9.1875C15.75 7.36375 14.1481 5.75 12 5.75C9.85188 5.75 8.25 7.36375 8.25 9.1875C8.25 11.0113 9.85188 12.625 12 12.625ZM12 13.875C14.7613 13.875 17 11.7762 17 9.1875C17 6.59875 14.7613 4.5 12 4.5C9.23875 4.5 7 6.59875 7 9.1875C7 11.7762 9.23875 13.875 12 13.875Z" fill="#7FBD3B"/>
<path fill-rule="evenodd" clip-rule="evenodd" d="M12 0.714355L14.8888 1.70436C15.5048 1.91564 16.0395 2.31416 16.4181 2.84419C16.7966 3.37422 17.0001 4.00928 17 4.66061V8.87498H15.75V4.66061C15.75 4.2698 15.6279 3.88875 15.4008 3.57073C15.1736 3.25271 14.8528 3.01361 14.4831 2.88686L12 2.03561L9.51688 2.88748C9.14729 3.0142 8.82653 3.2532 8.5994 3.5711C8.37226 3.88899 8.25011 4.2699 8.25 4.66061V8.87498H7V4.66061C6.99995 4.00928 7.20341 3.37422 7.58194 2.84419C7.96047 2.31416 8.49515 1.91564 9.11125 1.70436L12 0.714355Z" fill="#7FBD3B"/>
<path fill-rule="evenodd" clip-rule="evenodd" d="M9.5 20.125C10.163 20.125 10.7989 19.8616 11.2678 19.3927C11.7366 18.9239 12 18.288 12 17.625C12.0001 18.0589 12.1132 18.4853 12.328 18.8623C12.5429 19.2393 12.8522 19.5538 13.2255 19.775C13.5988 19.9962 14.0232 20.1165 14.4571 20.1239C14.8909 20.1314 15.3192 20.0258 15.6999 19.8175C16.0806 19.6093 16.4005 19.3055 16.6282 18.9361C16.8559 18.5668 16.9835 18.1445 16.9985 17.7108C17.0135 17.2772 16.9154 16.8471 16.7138 16.4628C16.5122 16.0786 16.2141 15.7534 15.8488 15.5193C19.4088 16.1856 23.25 17.7012 23.25 20.125V23.25H0.75V20.125C0.75 17.7012 4.59125 16.1856 8.15125 15.5193C7.6959 15.8108 7.3473 16.242 7.15771 16.7483C6.96813 17.2546 6.94779 17.8087 7.09973 18.3276C7.25167 18.8464 7.56772 19.302 8.00047 19.6261C8.43322 19.9502 8.95936 20.1252 9.5 20.125ZM5.75 23.25V19.5H4.5V23.25H5.75ZM19.5 19.5V23.25H18.25V19.5H19.5Z" fill="#7FBD3B"/>
<path fill-rule="evenodd" clip-rule="evenodd" d="M7.66248 15.6162C7.9431 17.455 9.77748 18.875 12 18.875C14.2219 18.875 16.0569 17.455 16.3375 15.6162C15.9352 15.5326 15.5309 15.4588 15.125 15.395V15.4375C15.125 16.6437 13.73 17.6218 12.0075 17.625H11.9925C10.27 17.6218 8.87498 16.6437 8.87498 15.4375V15.395C8.47623 15.4575 8.06998 15.5312 7.66248 15.6162Z" fill="#7FBD3B"/>
</svg>
