<svg width="24" height="26" viewBox="0 0 24 26" fill="none" xmlns="http://www.w3.org/2000/svg">
<path d="M3.25 25.5H20.75C21.413 25.5 22.0489 25.2366 22.5178 24.7678C22.9866 24.2989 23.25 23.6631 23.25 23V11.75C23.251 11.5855 23.2194 11.4224 23.1572 11.2701C23.095 11.1178 23.0034 10.9793 22.8875 10.8625L12.8875 0.862514C12.6533 0.629701 12.3365 0.499023 12.0063 0.499023C11.676 0.499023 11.3592 0.629701 11.125 0.862514L1.125 10.8625C1.00689 10.9783 0.912927 11.1163 0.848557 11.2687C0.784186 11.421 0.750687 11.5846 0.75 11.75V23C0.75 23.6631 1.01339 24.2989 1.48223 24.7678C1.95107 25.2366 2.58696 25.5 3.25 25.5ZM9.5 23V16.75H14.5V23H9.5ZM3.25 12.2625L12 3.51251L20.75 12.2625V23H17V16.75C17 16.087 16.7366 15.4511 16.2678 14.9822C15.7989 14.5134 15.163 14.25 14.5 14.25H9.5C8.83696 14.25 8.20107 14.5134 7.73223 14.9822C7.26339 15.4511 7 16.087 7 16.75V23H3.25V12.2625Z" fill="#F0F0F0"/>
</svg>
