<svg width="24" height="27" viewBox="0 0 24 27" fill="none" xmlns="http://www.w3.org/2000/svg">
<path d="M19.5 8.99997H22C22.3315 8.99997 22.6495 9.13167 22.8839 9.36609C23.1183 9.60051 23.25 9.91845 23.25 10.25V25.25C23.25 25.5815 23.1183 25.8994 22.8839 26.1339C22.6495 26.3683 22.3315 26.5 22 26.5H2C1.66848 26.5 1.35054 26.3683 1.11612 26.1339C0.881696 25.8994 0.75 25.5815 0.75 25.25V10.25C0.75 9.91845 0.881696 9.60051 1.11612 9.36609C1.35054 9.13167 1.66848 8.99997 2 8.99997H4.5V7.74997C4.5 5.76085 5.29018 3.85319 6.6967 2.44667C8.10322 1.04015 10.0109 0.249969 12 0.249969C13.9891 0.249969 15.8968 1.04015 17.3033 2.44667C18.7098 3.85319 19.5 5.76085 19.5 7.74997V8.99997ZM3.25 11.5V24H20.75V11.5H3.25ZM10.75 16.5H13.25V19H10.75V16.5ZM5.75 16.5H8.25V19H5.75V16.5ZM15.75 16.5H18.25V19H15.75V16.5ZM17 8.99997V7.74997C17 6.42389 16.4732 5.15212 15.5355 4.21444C14.5979 3.27675 13.3261 2.74997 12 2.74997C10.6739 2.74997 9.40215 3.27675 8.46447 4.21444C7.52678 5.15212 7 6.42389 7 7.74997V8.99997H17Z" fill="#7FBD3B"/>
</svg>
