<svg width="21" height="26" viewBox="0 0 21 26" fill="none" xmlns="http://www.w3.org/2000/svg">
<path d="M0 3C0 2.20435 0.31607 1.44129 0.87868 0.87868C1.44129 0.31607 2.20435 0 3 0H15C15.7956 0 16.5587 0.31607 17.1213 0.87868C17.6839 1.44129 18 2.20435 18 3V17.8245L16.5 19.3395V3C16.5 2.60218 16.342 2.22064 16.0607 1.93934C15.7794 1.65804 15.3978 1.5 15 1.5H3C2.60218 1.5 2.22064 1.65804 1.93934 1.93934C1.65804 2.22064 1.5 2.60218 1.5 3V21C1.5 21.3978 1.65804 21.7794 1.93934 22.0607C2.22064 22.342 2.60218 22.5 3 22.5H9.1275C9.234 22.8 9.405 23.0835 9.6435 23.325L10.305 24H3C2.20435 24 1.44129 23.6839 0.87868 23.1213C0.31607 22.5587 0 21.7956 0 21V3Z" fill="white"/>
<path d="M6 5.25C6 5.64782 5.84196 6.02936 5.56066 6.31066C5.27936 6.59196 4.89782 6.75 4.5 6.75C4.10218 6.75 3.72064 6.59196 3.43934 6.31066C3.15804 6.02936 3 5.64782 3 5.25C3 4.85218 3.15804 4.47064 3.43934 4.18934C3.72064 3.90804 4.10218 3.75 4.5 3.75C4.89782 3.75 5.27936 3.90804 5.56066 4.18934C5.84196 4.47064 6 4.85218 6 5.25Z" fill="white"/>
<path d="M8.25 4.5C8.05109 4.5 7.86032 4.57902 7.71967 4.71967C7.57902 4.86032 7.5 5.05109 7.5 5.25C7.5 5.44891 7.57902 5.63968 7.71967 5.78033C7.86032 5.92098 8.05109 6 8.25 6H14.25C14.4489 6 14.6397 5.92098 14.7803 5.78033C14.921 5.63968 15 5.44891 15 5.25C15 5.05109 14.921 4.86032 14.7803 4.71967C14.6397 4.57902 14.4489 4.5 14.25 4.5H8.25Z" fill="white"/>
<path d="M8.25 10.5C8.05109 10.5 7.86032 10.579 7.71967 10.7197C7.57902 10.8603 7.5 11.0511 7.5 11.25C7.5 11.4489 7.57902 11.6397 7.71967 11.7803C7.86032 11.921 8.05109 12 8.25 12H14.25C14.4489 12 14.6397 11.921 14.7803 11.7803C14.921 11.6397 15 11.4489 15 11.25C15 11.0511 14.921 10.8603 14.7803 10.7197C14.6397 10.579 14.4489 10.5 14.25 10.5H8.25Z" fill="white"/>
<path d="M7.5 17.25C7.5 17.0511 7.57902 16.8603 7.71967 16.7197C7.86032 16.579 8.05109 16.5 8.25 16.5H14.25C14.4489 16.5 14.6397 16.579 14.7803 16.7197C14.921 16.8603 15 17.0511 15 17.25C15 17.4489 14.921 17.6397 14.7803 17.7803C14.6397 17.921 14.4489 18 14.25 18H8.25C8.05109 18 7.86032 17.921 7.71967 17.7803C7.57902 17.6397 7.5 17.4489 7.5 17.25Z" fill="white"/>
<path d="M4.5 12.75C4.89782 12.75 5.27936 12.592 5.56066 12.3107C5.84196 12.0294 6 11.6478 6 11.25C6 10.8522 5.84196 10.4706 5.56066 10.1893C5.27936 9.90804 4.89782 9.75 4.5 9.75C4.10218 9.75 3.72064 9.90804 3.43934 10.1893C3.15804 10.4706 3 10.8522 3 11.25C3 11.6478 3.15804 12.0294 3.43934 12.3107C3.72064 12.592 4.10218 12.75 4.5 12.75Z" fill="white"/>
<path d="M4.5 18.75C4.89782 18.75 5.27936 18.592 5.56066 18.3107C5.84196 18.0294 6 17.6478 6 17.25C6 16.8522 5.84196 16.4706 5.56066 16.1893C5.27936 15.908 4.89782 15.75 4.5 15.75C4.10218 15.75 3.72064 15.908 3.43934 16.1893C3.15804 16.4706 3 16.8522 3 17.25C3 17.6478 3.15804 18.0294 3.43934 18.3107C3.72064 18.592 4.10218 18.75 4.5 18.75Z" fill="white"/>
<path d="M20.7825 19.2778C20.9186 19.1358 20.9935 18.946 20.991 18.7493C20.9885 18.5526 20.9089 18.3647 20.7692 18.2262C20.6295 18.0877 20.441 18.0096 20.2442 18.0088C20.0475 18.008 19.8583 18.0845 19.7175 18.2218L14.253 23.7418L11.7855 21.2248C11.7169 21.1529 11.6347 21.0952 11.5437 21.0553C11.4527 21.0154 11.3547 20.994 11.2553 20.9923C11.1559 20.9906 11.0572 21.0087 10.9648 21.0455C10.8725 21.0822 10.7884 21.137 10.7174 21.2066C10.6465 21.2762 10.59 21.3592 10.5514 21.4508C10.5128 21.5424 10.4928 21.6407 10.4925 21.7401C10.4922 21.8395 10.5117 21.9379 10.5498 22.0297C10.5879 22.1215 10.6439 22.2048 10.7145 22.2748L13.608 25.2268C13.6915 25.312 13.7912 25.3798 13.9012 25.4262C14.0112 25.4725 14.1293 25.4965 14.2486 25.4968C14.368 25.4971 14.4862 25.4736 14.5964 25.4278C14.7066 25.382 14.8065 25.3147 14.8905 25.2298L20.7825 19.2778Z" fill="white"/>
</svg>
