<svg width="30" height="30" viewBox="0 0 30 30" fill="white" xmlns="http://www.w3.org/2000/svg">
<path d="M16.875 17.8125H28.125V19.6875H16.875V17.8125Z" />
<path d="M16.875 21.5625H28.125V23.4375H16.875V21.5625Z" />
<path d="M16.875 25.3125H24.375V27.1875H16.875V25.3125Z" />
<path d="M22.5 3.75C21.6709 3.75247 20.866 4.02992 20.2115 4.53888C19.557 5.04783 19.0898 5.75955 18.8831 6.5625H11.25V3.75H3.75V11.25H11.25V8.4375H18.8831C18.9704 8.77306 19.1046 9.09465 19.2816 9.39281L9.39282 19.2816C8.82126 18.9372 8.1673 18.7535 7.5 18.75C6.79804 18.7474 6.10943 18.9418 5.51252 19.3112C4.91561 19.6807 4.43438 20.2102 4.12357 20.8396C3.81276 21.469 3.68486 22.173 3.75442 22.8716C3.82398 23.5701 4.0882 24.235 4.51703 24.7908C4.94585 25.3466 5.52206 25.7708 6.1801 26.0153C6.83813 26.2597 7.55157 26.3145 8.23923 26.1735C8.9269 26.0325 9.56118 25.7013 10.0699 25.2176C10.5786 24.734 10.9414 24.1172 11.1169 23.4375H15V21.5625H11.1169C11.0296 21.2269 10.8954 20.9053 10.7184 20.6072L20.6072 10.7184C21.1787 11.0628 21.8327 11.2465 22.5 11.25C23.4946 11.25 24.4484 10.8549 25.1517 10.1517C25.8549 9.44839 26.25 8.49456 26.25 7.5C26.25 6.50544 25.8549 5.55161 25.1517 4.84835C24.4484 4.14509 23.4946 3.75 22.5 3.75ZM9.375 9.375H5.625V5.625H9.375V9.375ZM7.5 24.375C7.12916 24.375 6.76665 24.265 6.45831 24.059C6.14997 23.853 5.90964 23.5601 5.76773 23.2175C5.62582 22.8749 5.58868 22.4979 5.66103 22.1342C5.73338 21.7705 5.91195 21.4364 6.17418 21.1742C6.4364 20.912 6.77049 20.7334 7.13421 20.661C7.49792 20.5887 7.87492 20.6258 8.21754 20.7677C8.56015 20.9096 8.85298 21.15 9.05901 21.4583C9.26504 21.7666 9.375 22.1292 9.375 22.5C9.37451 22.9971 9.1768 23.4738 8.82528 23.8253C8.47376 24.1768 7.99713 24.3745 7.5 24.375ZM22.5 9.375C22.1292 9.375 21.7667 9.26503 21.4583 9.05901C21.15 8.85298 20.9096 8.56014 20.7677 8.21753C20.6258 7.87492 20.5887 7.49792 20.661 7.13421C20.7334 6.77049 20.912 6.4364 21.1742 6.17417C21.4364 5.91195 21.7705 5.73337 22.1342 5.66103C22.4979 5.58868 22.8749 5.62581 23.2175 5.76773C23.5601 5.90964 23.853 6.14996 24.059 6.45831C24.265 6.76665 24.375 7.12916 24.375 7.5C24.3745 7.99713 24.1768 8.47375 23.8253 8.82528C23.4738 9.1768 22.9971 9.3745 22.5 9.375Z" />
</svg>
