<svg width="22" height="22" viewBox="0 0 22 22" fill="none" xmlns="http://www.w3.org/2000/svg">
<path d="M7.71875 5.30757H9.88379V15.2187C9.88379 15.3476 9.98926 15.4531 10.1182 15.4531H11.876C12.0049 15.4531 12.1104 15.3476 12.1104 15.2187V5.30757H14.2812C14.4775 5.30757 14.5859 5.08198 14.4658 4.92964L11.1846 0.775351C11.1626 0.747338 11.1346 0.724683 11.1027 0.709102C11.0707 0.693522 11.0356 0.685425 11 0.685425C10.9644 0.685425 10.9293 0.693522 10.8973 0.709102C10.8654 0.724683 10.8374 0.747338 10.8154 0.775351L7.53418 4.92671C7.41406 5.08199 7.52246 5.30757 7.71875 5.30757ZM21.7227 14.3398H19.9648C19.8359 14.3398 19.7305 14.4453 19.7305 14.5742V19.0859H2.26953V14.5742C2.26953 14.4453 2.16406 14.3398 2.03516 14.3398H0.277344C0.148438 14.3398 0.0429688 14.4453 0.0429688 14.5742V20.3749C0.0429688 20.8935 0.461914 21.3124 0.980469 21.3124H21.0195C21.5381 21.3124 21.957 20.8935 21.957 20.3749V14.5742C21.957 14.4453 21.8516 14.3398 21.7227 14.3398Z" fill="white"/>
</svg>
