<svg width="52" height="50" viewBox="0 0 52 50" fill="none" xmlns="http://www.w3.org/2000/svg">
<path d="M18.3438 11.7178H23.3955V34.8437C23.3955 35.1445 23.6416 35.3906 23.9424 35.3906H28.0439C28.3447 35.3906 28.5908 35.1445 28.5908 34.8437V11.7178H33.6562C34.1143 11.7178 34.3672 11.1914 34.0869 10.8359L26.4307 1.14257C26.3795 1.0772 26.3141 1.02434 26.2395 0.987987C26.1649 0.951633 26.083 0.932739 26 0.932739C25.917 0.932739 25.8351 0.951633 25.7605 0.987987C25.6859 1.02434 25.6205 1.0772 25.5693 1.14257L17.9131 10.8291C17.6328 11.1914 17.8857 11.7178 18.3438 11.7178ZM51.0195 32.7929H46.918C46.6172 32.7929 46.3711 33.039 46.3711 33.3398V43.8671H5.62891V33.3398C5.62891 33.039 5.38281 32.7929 5.08203 32.7929H0.980469C0.679688 32.7929 0.433594 33.039 0.433594 33.3398V46.8749C0.433594 48.0849 1.41113 49.0624 2.62109 49.0624H49.3789C50.5889 49.0624 51.5664 48.0849 51.5664 46.8749V33.3398C51.5664 33.039 51.3203 32.7929 51.0195 32.7929Z" fill="#64B60A"/>
</svg>
