<svg width="24" height="24" viewBox="0 0 24 24" fill="none" xmlns="http://www.w3.org/2000/svg">
<path d="M22.1513 19.3711C21.5987 18.062 20.7967 16.873 19.79 15.8701C18.7864 14.8644 17.5975 14.0625 16.289 13.5088C16.2773 13.5029 16.2656 13.5 16.2539 13.4941C18.0791 12.1758 19.2656 10.0283 19.2656 7.60547C19.2656 3.5918 16.0136 0.339844 12 0.339844C7.98629 0.339844 4.73434 3.5918 4.73434 7.60547C4.73434 10.0283 5.92086 12.1758 7.74606 13.4971C7.73434 13.5029 7.72262 13.5059 7.7109 13.5117C6.3984 14.0654 5.22067 14.8594 4.20993 15.873C3.20419 16.8767 2.40232 18.0655 1.8486 19.374C1.30462 20.655 1.01124 22.0285 0.984341 23.4199C0.983559 23.4512 0.989044 23.4823 1.00047 23.5114C1.0119 23.5405 1.02904 23.5671 1.05088 23.5895C1.07272 23.6118 1.09883 23.6296 1.12765 23.6418C1.15647 23.6539 1.18744 23.6602 1.21872 23.6602H2.97653C3.10544 23.6602 3.20797 23.5576 3.2109 23.4316C3.2695 21.1699 4.1777 19.0518 5.78317 17.4463C7.4443 15.7852 9.65036 14.8711 12 14.8711C14.3496 14.8711 16.5556 15.7852 18.2168 17.4463C19.8222 19.0518 20.7304 21.1699 20.789 23.4316C20.792 23.5605 20.8945 23.6602 21.0234 23.6602H22.7812C22.8125 23.6602 22.8435 23.6539 22.8723 23.6418C22.9011 23.6296 22.9272 23.6118 22.9491 23.5895C22.9709 23.5671 22.988 23.5405 22.9995 23.5114C23.0109 23.4823 23.0164 23.4512 23.0156 23.4199C22.9863 22.0195 22.6963 20.6572 22.1513 19.3711ZM12 12.6445C10.6552 12.6445 9.38962 12.1201 8.43747 11.168C7.48532 10.2158 6.9609 8.9502 6.9609 7.60547C6.9609 6.26074 7.48532 4.99512 8.43747 4.04297C9.38962 3.09082 10.6552 2.56641 12 2.56641C13.3447 2.56641 14.6103 3.09082 15.5625 4.04297C16.5146 4.99512 17.039 6.26074 17.039 7.60547C17.039 8.9502 16.5146 10.2158 15.5625 11.168C14.6103 12.1201 13.3447 12.6445 12 12.6445Z" fill="#7FBD3B"/>
</svg>
