<svg width="50" height="50" viewBox="0 0 50 50" fill="none" xmlns="http://www.w3.org/2000/svg">
<path fill-rule="evenodd" clip-rule="evenodd" d="M22.9812 26.6687L11.802 5.64163C11.7378 5.52084 11.698 5.38859 11.6848 5.25242C11.6717 5.11624 11.6856 4.97882 11.7256 4.848C11.8063 4.58379 11.9888 4.36249 12.2327 4.23278C12.4767 4.10307 12.7621 4.07558 13.0264 4.15636C13.1572 4.19636 13.2788 4.26173 13.3844 4.34875C13.49 4.43576 13.5773 4.54272 13.6416 4.66351L24.8218 25.6906L26.4072 24.8468C26.8904 24.5899 27.4195 24.4308 27.9642 24.3784C28.509 24.326 29.0587 24.3814 29.582 24.5415C30.1053 24.7016 30.592 24.9632 31.0142 25.3114C31.4364 25.6596 31.7858 26.0875 32.0426 26.5708L32.7176 27.8406L39.8739 38.3135L30.7718 43.152L27.6187 36.9198L25.7603 37.8604L28.9322 44.1312L25.0301 46.2052L20.3478 34.4156L19.6739 33.1468C19.4169 32.6637 19.2577 32.1347 19.2052 31.59C19.1528 31.0453 19.2081 30.4956 19.3681 29.9723C19.5281 29.449 19.7896 28.9623 20.1377 28.5401C20.4858 28.1178 20.9136 27.7683 21.3968 27.5114L22.9822 26.6687H22.9812ZM27.3843 26.6875L22.3739 29.351C22.1323 29.4794 21.9184 29.6542 21.7443 29.8653C21.5703 30.0764 21.4395 30.3198 21.3595 30.5814C21.2795 30.8431 21.2519 31.1179 21.2781 31.3903C21.3043 31.6626 21.3839 31.9271 21.5124 32.1687L22.1864 33.4375L30.877 28.8166L30.202 27.5489C30.0736 27.3073 29.8988 27.0934 29.6877 26.9194C29.4766 26.7453 29.2332 26.6146 28.9716 26.5346C28.7099 26.4546 28.4351 26.4269 28.1627 26.4531C27.8904 26.4794 27.6259 26.559 27.3843 26.6875Z" fill="white"/>
<path d="M18.5083 36.8332C18.3316 36.6209 18.0778 36.4876 17.8028 36.4624C17.5277 36.4372 17.254 36.5222 17.0416 36.6988H17.0437L17.0323 36.7072L16.9666 36.7572C16.8734 36.8272 16.7782 36.8946 16.6812 36.9592C16.4229 37.1311 16.0375 37.3655 15.5416 37.6009C14.2671 38.2135 12.8723 38.5348 11.4583 38.5415C11.182 38.5415 10.9171 38.6513 10.7217 38.8466C10.5264 39.042 10.4166 39.3069 10.4166 39.5832C10.4166 39.8595 10.5264 40.1244 10.7217 40.3198C10.9171 40.5151 11.182 40.6249 11.4583 40.6249C13.527 40.6249 15.2427 40.0509 16.4375 39.4822C16.9223 39.2526 17.3902 38.9887 17.8375 38.6926C18.0049 38.5805 18.1682 38.4624 18.327 38.3384L18.3583 38.3145L18.3687 38.3061L18.3718 38.302H18.3739L18.375 38.2999C18.5871 38.123 18.7203 37.8692 18.7453 37.5941C18.7703 37.3191 18.685 37.0454 18.5083 36.8332Z" fill="white"/>
<path d="M20.6583 42.1302C20.7343 42.244 20.787 42.3717 20.8136 42.5059C20.8402 42.6401 20.8401 42.7782 20.8133 42.9124C20.7865 43.0466 20.7336 43.1741 20.6575 43.2878C20.5814 43.4015 20.4836 43.4991 20.3698 43.575L20.3677 43.5771L20.3635 43.5792L20.3531 43.5854L20.3208 43.6063C20.1405 43.721 19.9574 43.8314 19.7719 43.9375C19.4063 44.1469 18.8865 44.425 18.2615 44.7021C17.0323 45.249 15.3135 45.8334 13.5417 45.8334C13.2654 45.8334 13.0004 45.7236 12.8051 45.5283C12.6097 45.3329 12.5 45.068 12.5 44.7917C12.5 44.5154 12.6097 44.2505 12.8051 44.0551C13.0004 43.8598 13.2654 43.75 13.5417 43.75C14.8938 43.75 16.3021 43.2927 17.4156 42.7979C17.9958 42.5391 18.5587 42.2433 19.101 41.9125C19.1417 41.8886 19.1719 41.8688 19.1906 41.8563L19.2115 41.8438L19.2135 41.8417C19.3273 41.7657 19.455 41.713 19.5892 41.6864C19.7234 41.6598 19.8615 41.6599 19.9957 41.6867C20.1299 41.7135 20.2574 41.7664 20.3711 41.8425C20.4848 41.9186 20.5824 42.0164 20.6583 42.1302Z" fill="white"/>
</svg>
