<svg width="50" height="50" viewBox="0 0 50 50" fill="none" xmlns="http://www.w3.org/2000/svg">
<path d="M39.5833 12.5001H33.3333V10.0001C33.3333 7.66675 34.5 5.47925 36.4583 4.16675C38.4167 5.47925 39.5833 7.66675 39.5833 10.0001V12.5001ZM31.8333 28.3959L40.8125 39.5834C42.4583 39.7084 43.75 41.0418 43.75 42.7084C43.75 44.4376 42.3542 45.8334 40.625 45.8334C38.8958 45.8334 37.5 44.4376 37.5 42.7084V42.2084L29.1667 31.7292L20.8333 42.2084V42.7084C20.8333 44.4376 19.4375 45.8334 17.7083 45.8334C15.9792 45.8334 14.5833 44.4376 14.5833 42.7084C14.5833 41.0418 15.8958 39.7084 17.5208 39.5834L26.5 28.3959L18.75 18.7501H6.25V14.5834H43.75V18.7501H39.5833L31.8333 28.3959ZM29.1667 25.0001L34.2083 18.7501H24.125L29.1667 25.0001Z" fill="white"/>
</svg>
