<svg width="50" height="50" viewBox="0 0 50 50" fill="none" xmlns="http://www.w3.org/2000/svg">
<path d="M30.66 23.34C33.78 26.46 33.78 31.54 30.66 34.66C27.54 37.78 22.46 37.78 19.34 34.66L30.66 23.34ZM13 5H37C38.0609 5 39.0783 5.42143 39.8284 6.17157C40.5786 6.92172 41 7.93913 41 9V41C41 43.22 39.22 45 37 45H13C11.9391 45 10.9217 44.5786 10.1716 43.8284C9.42143 43.0783 9 42.0609 9 41V9C9 6.8 10.8 5 13 5ZM15 9C13.9 9 13 9.9 13 11C13 12.1 13.9 13 15 13C16.1 13 17 12.1 17 11C17 9.9 16.1 9 15 9ZM21 9C19.9 9 19 9.9 19 11C19 12.1 19.9 13 21 13C22.1 13 23 12.1 23 11C23 9.9 22.1 9 21 9ZM25 17C18.38 17 13 22.38 13 29C13 35.62 18.38 41 25 41C31.62 41 37 35.62 37 29C37 22.38 31.62 17 25 17Z" fill="white"/>
</svg>
